<?xml version="1.0" encoding="UTF-8"?>
<svg width="42px" height="39px" viewBox="0 0 42 39" version="1.1" xmlns="http://www.w3.org/2000/svg" xmlns:xlink="http://www.w3.org/1999/xlink">
    <!-- Generator: Sketch 51.1 (57501) - http://www.bohemiancoding.com/sketch -->
    <title>icon/flightnotification</title>
    <desc>Created with Sketch.</desc>
    <defs>
        <path d="M5.95772358,0.21292255 C2.62421908,0.21292255 0,2.89191271 0,6.17133077 L0,24.3744972 C0,27.6545999 2.67899016,30.3329054 5.95772358,30.3329054 L8.80102696,30.3329054 L8.80102696,37.9857938 C8.80102696,38.4232777 9.01942662,38.7512195 9.4021395,38.9148481 C9.51168164,38.9696192 9.67531023,39.0243902 9.78485237,39.0243902 C10.0580231,39.0243902 10.2771074,38.9148481 10.4955071,38.7512195 L19.296534,30.3329054 L35.8045357,30.3329054 C39.0839538,30.3329054 41.7629439,27.6545999 41.7629439,24.3744972 L41.7629439,6.17133077 C41.7629439,2.89191271 39.0839538,0.21292255 35.8045357,0.21292255 L5.95772358,0.21292255 Z M1.89268293,24.4279477 L1.89268293,6.04590887 C1.89268293,3.89299519 3.65912302,2.1265551 5.81134533,2.1265551 L35.9514455,2.1265551 C38.0490499,2.1265551 39.8154899,3.89299519 39.8154899,6.04590887 L39.8154899,24.4279477 C39.8154899,26.5808614 38.0490499,28.3473015 35.8961362,28.3473015 L18.839446,28.3473015 C18.5628996,28.3473015 18.3430452,28.4572286 18.1218081,28.6231565 L10.7248834,35.7435348 L10.7248834,29.3961037 C10.7248834,28.8437022 10.2831005,28.3473015 9.67608119,28.3473015 L5.81134533,28.3473015 C3.65912302,28.3473015 1.89268293,26.5808614 1.89268293,24.4279477 Z" id="path-1"></path>
    </defs>
    <g id="Symbols" stroke="none" stroke-width="1" fill="none" fill-rule="evenodd">
        <g id="Section/getFlightNotification">
            <g id="icon/flightnotification">
                <g id="Group-5">
                    <g id="Group-4">
                        <g id="Group-3">
                            <mask id="mask-2" fill="white">
                                <use xlink:href="#path-1"></use>
                            </mask>
                            <use id="Clip-2" fill="#986565" xlink:href="#path-1"></use>
                            <polygon id="Fill-1" fill="#00266B" mask="url(#mask-2)" points="-3.42319213 42.4475824 45.1861361 42.4475824 45.1861361 -3.20958494 -3.42319213 -3.20958494"></polygon>
                        </g>
                        <path d="M30.8388703,10.5366962 C30.8388703,10.5373276 30.8388703,10.5385905 30.8376075,10.5404848 C30.8552879,11.0652137 29.9119125,11.8823005 29.9119125,11.8823005 L25.2714403,14.0816154 L23.7231428,23.8462449 L22.4937239,24.3236156 L21.8572297,17.0272955 L21.2036865,15.975312 L15.7322357,18.5579125 L14.4939766,22.3509887 L14.2275078,22.5195839 L13.5139776,18.9020488 L13.1458465,18.8186983 L13.0568131,18.7978607 L13.1010141,18.7094587 L13.2696093,18.3728998 L10.9237997,15.5276191 L11.223735,15.4278511 L14.9423009,16.8757492 L20.4080688,14.2798884 L20.0083655,13.1072993 L14.7661284,7.99071929 L15.9147227,7.34159622 L24.4499333,12.3331506 L29.0916685,10.136993 C29.0916685,10.136993 30.8388703,9.83768913 30.8388703,10.5366962" id="Fill-4" fill="#00266B"></path>
                    </g>
                </g>
            </g>
        </g>
    </g>
</svg>